<?xml version="1.0" encoding="UTF-8" standalone="no"?>
<svg
   xmlns:a="http://ns.adobe.com/AdobeSVGViewerExtensions/3.0/"
   xmlns:dc="http://purl.org/dc/elements/1.1/"
   xmlns:cc="http://creativecommons.org/ns#"
   xmlns:rdf="http://www.w3.org/1999/02/22-rdf-syntax-ns#"
   xmlns:svg="http://www.w3.org/2000/svg"
   xmlns="http://www.w3.org/2000/svg"
   xmlns:xlink="http://www.w3.org/1999/xlink"
   xmlns:sodipodi="http://sodipodi.sourceforge.net/DTD/sodipodi-0.dtd"
   xmlns:inkscape="http://www.inkscape.org/namespaces/inkscape"
   width="125"
   height="125"
   viewBox="-0.103 -0.179 125 125"
   overflow="visible"
   enable-background="new -0.103 -0.179 125 125"
   xml:space="preserve"
   id="svg4380"
   sodipodi:version="0.32"
   inkscape:version="0.46"
   sodipodi:docname="error.svg"
   inkscape:output_extension="org.inkscape.output.svg.inkscape"
   inkscape:export-filename="/home/Esteban/Programas/gestotux/src/imagenes/aviso.png"
   inkscape:export-xdpi="15.833413"
   inkscape:export-ydpi="15.833413"><metadata
   id="metadata4468"><rdf:RDF><cc:Work
       rdf:about=""><dc:format>image/svg+xml</dc:format><dc:type
         rdf:resource="http://purl.org/dc/dcmitype/StillImage" /></cc:Work></rdf:RDF></metadata><defs
   id="defs4466"><inkscape:perspective
   sodipodi:type="inkscape:persp3d"
   inkscape:vp_x="0 : 62.5 : 1"
   inkscape:vp_y="0 : 1000 : 0"
   inkscape:vp_z="125 : 62.5 : 1"
   inkscape:persp3d-origin="62.5 : 41.666667 : 1"
   id="perspective4470" />
		
	
			<linearGradient
   id="XMLID_1_"
   gradientUnits="userSpaceOnUse"
   x1="62.526901"
   y1="138.67101"
   x2="62.526798"
   y2="-20.695801">
				<stop
   offset="0"
   style="stop-color:rgb(255,194,0)"
   id="stop4386" />
				<stop
   offset="0.1548"
   style="stop-color:rgb(247,181,0)"
   id="stop4388" />
				<stop
   offset="0.716"
   style="stop-color:rgb(222,136,0)"
   id="stop4390" />
				<stop
   offset="1"
   style="stop-color:rgb(212,119,0)"
   id="stop4392" />
			</linearGradient>
			
			<linearGradient
   id="XMLID_2_"
   gradientUnits="userSpaceOnUse"
   x1="62.526901"
   y1="35.0005"
   x2="62.526901"
   y2="140.022">
				<stop
   offset="0"
   style="stop-color:rgb(255,167,0)"
   id="stop4397" />
				<stop
   offset="0.691"
   style="stop-color:rgb(255,255,0)"
   id="stop4399" />
				<stop
   offset="0.792"
   style="stop-color:rgb(255,252,0)"
   id="stop4401" />
				<stop
   offset="0.8546"
   style="stop-color:rgb(255,244,0)"
   id="stop4403" />
				<stop
   offset="0.9067"
   style="stop-color:rgb(255,229,0)"
   id="stop4405" />
				<stop
   offset="0.953"
   style="stop-color:rgb(255,209,0)"
   id="stop4407" />
				<stop
   offset="0.9952"
   style="stop-color:rgb(255,183,0)"
   id="stop4409" />
				<stop
   offset="1"
   style="stop-color:rgb(255,179,0)"
   id="stop4411" />
			</linearGradient>
			
			<radialGradient
   id="XMLID_3_"
   cx="59.7896"
   cy="115.691"
   r="93.4664"
   fx="59.7896"
   fy="115.691"
   gradientUnits="userSpaceOnUse">
				<stop
   offset="0"
   style="stop-color:rgb(255,255,0)"
   id="stop4416" />
				<stop
   offset="0.1643"
   style="stop-color:rgb(255,241,0)"
   id="stop4418" />
				<stop
   offset="0.7192"
   style="stop-color:rgb(255,196,0)"
   id="stop4420" />
				<stop
   offset="1"
   style="stop-color:rgb(255,179,0)"
   id="stop4422" />
				<a:midPointStop
   offset="0"
   style="stop-color:#FFFF00" />
				<a:midPointStop
   offset="0.4463"
   style="stop-color:#FFFF00" />
				<a:midPointStop
   offset="1"
   style="stop-color:#FFB300" />
			</radialGradient>
			
			<linearGradient
   id="XMLID_4_"
   gradientUnits="userSpaceOnUse"
   x1="62.526402"
   y1="8.4252996"
   x2="62.526402"
   y2="67.423302">
				<stop
   offset="7.47126%"
   style="stop-color:rgb(255,255,255)"
   id="stop4427" />
				<stop
   offset="100%"
   style="stop-opacity:0;stop-color:rgb(255,255,255)"
   id="stop4429" />
			</linearGradient>
			
			
			
		<linearGradient
   inkscape:collect="always"
   xlink:href="#XMLID_4_"
   id="linearGradient4647"
   gradientUnits="userSpaceOnUse"
   x1="62.526402"
   y1="8.4252996"
   x2="62.526402"
   y2="67.423302" /><radialGradient
   inkscape:collect="always"
   xlink:href="#XMLID_3_"
   id="radialGradient4650"
   gradientUnits="userSpaceOnUse"
   cx="59.7896"
   cy="115.691"
   fx="59.7896"
   fy="115.691"
   r="93.4664" /><linearGradient
   inkscape:collect="always"
   xlink:href="#XMLID_2_"
   id="linearGradient4653"
   gradientUnits="userSpaceOnUse"
   x1="62.526901"
   y1="35.0005"
   x2="62.526901"
   y2="140.022" /><linearGradient
   inkscape:collect="always"
   xlink:href="#XMLID_1_"
   id="linearGradient4656"
   gradientUnits="userSpaceOnUse"
   x1="62.526901"
   y1="138.67101"
   x2="62.526798"
   y2="-20.695801" />
				<linearGradient
   y2="60.036598"
   x2="68.300797"
   y1="-4.79"
   x1="68.300797"
   gradientUnits="userSpaceOnUse"
   id="XMLID_7_">
					<stop
   id="stop4452"
   style="stop-color:rgb(255,255,255)"
   offset="0" />
					<stop
   id="stop4454"
   style="stop-color:rgb(0,0,0)"
   offset="1" />
					<a:midPointStop
   style="stop-color:#FFFFFF"
   offset="0" />
					<a:midPointStop
   style="stop-color:#FFFFFF"
   offset="0.5" />
					<a:midPointStop
   style="stop-color:#000000"
   offset="1" />
				</linearGradient>
				
				<linearGradient
   y2="60.039101"
   x2="68.003899"
   y1="-4.7817001"
   x1="68.003899"
   gradientUnits="userSpaceOnUse"
   id="XMLID_8_">
					<stop
   id="stop4459"
   style="stop-color:rgb(255,255,255)"
   offset="0" />
					<stop
   id="stop4461"
   style="stop-color:rgb(0,0,0)"
   offset="1" />
					<a:midPointStop
   style="stop-color:#FFFFFF"
   offset="0" />
					<a:midPointStop
   style="stop-color:#FFFFFF"
   offset="0.5" />
					<a:midPointStop
   style="stop-color:#000000"
   offset="1" />
				</linearGradient>
				
			<linearGradient
   inkscape:collect="always"
   xlink:href="#XMLID_8_"
   id="linearGradient4708"
   gradientUnits="userSpaceOnUse"
   x1="68.003899"
   y1="-4.7817001"
   x2="68.003899"
   y2="60.039101" /><linearGradient
   inkscape:collect="always"
   xlink:href="#XMLID_7_"
   id="linearGradient4711"
   gradientUnits="userSpaceOnUse"
   x1="68.300797"
   y1="-4.79"
   x2="68.300797"
   y2="60.036598" />
				<linearGradient
   y2="55.161499"
   x2="62.851601"
   y1="-16.095699"
   x1="62.851601"
   gradientUnits="userSpaceOnUse"
   id="XMLID_5_">
					<stop
   id="stop4436"
   style="stop-color:rgb(255,255,255)"
   offset="0" />
					<stop
   id="stop4438"
   style="stop-color:rgb(0,0,0)"
   offset="1" />
					<a:midPointStop
   style="stop-color:#FFFFFF"
   offset="0" />
					<a:midPointStop
   style="stop-color:#FFFFFF"
   offset="0.5" />
					<a:midPointStop
   style="stop-color:#000000"
   offset="1" />
				</linearGradient>
				
				<linearGradient
   y2="55.161098"
   x2="62.525902"
   y1="-16.0947"
   x1="62.525902"
   gradientUnits="userSpaceOnUse"
   id="XMLID_6_">
					<stop
   id="stop4443"
   style="stop-color:rgb(255,255,255)"
   offset="0" />
					<stop
   id="stop4445"
   style="stop-color:rgb(0,0,0)"
   offset="1" />
					<a:midPointStop
   style="stop-color:#FFFFFF"
   offset="0" />
					<a:midPointStop
   style="stop-color:#FFFFFF"
   offset="0.5" />
					<a:midPointStop
   style="stop-color:#000000"
   offset="1" />
				</linearGradient>
				
			<linearGradient
   inkscape:collect="always"
   xlink:href="#XMLID_6_"
   id="linearGradient4724"
   gradientUnits="userSpaceOnUse"
   x1="62.525902"
   y1="-16.0947"
   x2="62.525902"
   y2="55.161098" /><linearGradient
   inkscape:collect="always"
   xlink:href="#XMLID_5_"
   id="linearGradient4727"
   gradientUnits="userSpaceOnUse"
   x1="62.851601"
   y1="-16.095699"
   x2="62.851601"
   y2="55.161499" /></defs><sodipodi:namedview
   inkscape:window-height="672"
   inkscape:window-width="640"
   inkscape:pageshadow="2"
   inkscape:pageopacity="0.0"
   guidetolerance="10.0"
   gridtolerance="10.0"
   objecttolerance="10.0"
   borderopacity="1.0"
   bordercolor="#666666"
   pagecolor="#ffffff"
   id="base"
   showgrid="false"
   inkscape:zoom="1.864"
   inkscape:cx="116.35776"
   inkscape:cy="55.212049"
   inkscape:window-x="0"
   inkscape:window-y="9"
   inkscape:current-layer="svg4380" />
	<g
   id="g4749"
   inkscape:export-filename="/home/Esteban/Programas/gestotux/templates/aviso.png"
   inkscape:export-xdpi="182.92999"
   inkscape:export-ydpi="182.92999"><path
     id="path4394"
     style="fill:url(#linearGradient4656)"
     d="M 0,62.528 C 0,97.004 28.049,125.053 62.526,125.053 C 97.003,125.053 125.052,97.004 125.052,62.528 C 125.053,28.051 97.003,0 62.526,0 C 28.049,0 0,28.051 0,62.528 z M 5.685,62.528 C 5.685,31.184 31.184,5.684 62.527,5.684 C 93.87,5.684 119.369,31.184 119.369,62.528 C 119.369,93.87 93.87,119.368 62.527,119.368 C 31.184,119.368 5.685,93.871 5.685,62.528 z" /><path
     id="path4413"
     style="fill:url(#linearGradient4653)"
     d="M 122.211,62.528 C 122.211,95.49 95.49,122.211 62.528,122.211 C 29.564,122.211 2.843,95.49 2.843,62.528 C 2.843,29.565 29.563,2.842 62.528,2.842 C 95.49,2.842 122.211,29.565 122.211,62.528 z" /><path
     id="path4424"
     style="fill:url(#radialGradient4650)"
     d="M 116.848,72.487 C 116.848,97.281 92.529,117.379 62.528,117.379 C 32.526,117.379 8.207,97.281 8.207,72.487 C 8.207,47.695 32.526,27.597 62.528,27.597 C 92.528,27.597 116.848,47.694 116.848,72.487 z" /><path
     id="path4431"
     style="fill:url(#linearGradient4647)"
     d="M 112.466,42.079 C 112.466,61.977 90.108,78.11 62.527,78.11 C 34.946,78.11 12.587,61.978 12.587,42.079 C 12.587,22.179 34.945,6.047 62.526,6.047 C 90.107,6.047 112.466,22.179 112.466,42.079 z"
     a:adobe-blending-mode="screen" /><path
     sodipodi:nodetypes="ccczzzzzc"
     d="M 78.362,74.512 C 78.362,79.147 74.606,82.9 69.973,82.9 L 66.628,82.9 C 61.995,82.9 59.039041,79.07708 58.237,74.512 L 50.994511,33.289 C 50.19247,28.72392 58.508362,22.604204 63.140876,22.486837 L 73.728365,22.218597 C 78.359879,22.101254 88.477234,28.493832 87.482172,33.02076 L 78.362,74.512 z"
     style="opacity:0.2;fill:url(#linearGradient4711);fill-rule:evenodd"
     id="path4456" /><path
     sodipodi:nodetypes="cccczzzzc"
     d="M 73.911,71.072 C 73.911,76.167 69.783,80.293 64.69,80.293 L 61.014,80.293 C 55.921,80.293 51.792,76.167 51.792,71.072 L 43.208309,26.296481 C 42.249228,21.293582 50.287983,14.228303 55.380953,14.125837 L 68.713605,13.857597 C 73.805575,13.755151 83.453772,21.293582 82.494691,26.296481 L 73.911,71.072 z"
     style="fill:url(#linearGradient4727);fill-rule:evenodd"
     id="path4440" /><path
     d="M 74.562,97.533 C 74.562,104.179 69.174,109.569 62.527,109.569 C 55.881,109.569 50.492,104.178 50.492,97.533 C 50.492,90.886 55.881,85.498 62.527,85.498 C 69.174,85.498 74.562,90.885 74.562,97.533 z"
     style="fill:url(#linearGradient4724);fill-rule:evenodd"
     id="path4447" /><path
     d="M 78.953,98.584 C 78.953,104.629 74.052,109.533 68.005,109.533 C 61.957,109.533 57.054,104.629 57.054,98.584 C 57.054,92.537 61.957,87.636 68.005,87.636 C 74.052,87.636 78.953,92.538 78.953,98.584 z"
     style="opacity:0.2;fill:url(#linearGradient4708);fill-rule:evenodd"
     id="path4463" /></g>
</svg>